#!OML:ASF H:\Terrain\Patient Classification 1\Takeo\Monday\TakeoMonday.ASF
:FULLY-SPECIFIED
:DEGREES
797
root 18.5135 16.1895 -1.79972 -22.3248 -75.0159 24.0877
lowerback 17.2817 0.0528271 4.24914
upperback 10.3907 0.0481707 3.14229
thorax 1.46229 -0.140651 0.902415
lowerneck -6.00737 16.8475 8.61168
upperneck 2.30636 23.1037 -16.9714
head 4.6726 11.0787 -4.59514
rclavicle -3.18055e-014 4.77083e-015
rhumerus 0.452065 -49.1495 -55.8291
rradius 47.028
rwrist -31.2117
rhand -54.7168 41.0622
rfingers 7.12502
rthumb -27.1093 12.9888
lclavicle -3.18055e-014 4.77083e-015
lhumerus -5.90876 -1.93939 73.6878
lradius 78.375
lwrist 21.5944
lhand -28.312 15.9725
lfingers 7.12502
lthumb -1.6872 45.9455
rfemur -25.3311 -16.3482 5.44523
rtibia 61.2278
rfoot -27.8417 -13.1485
rtoes -14.0058
lfemur -30.9503 22.1641 -19.4347
ltibia 58.2506
lfoot -19.2115 13.3079
ltoes 3.37653
798
root 18.5241 16.1997 -1.7645 -21.313 -73.9442 23.082
lowerback 17.1544 0.0765923 4.08718
upperback 10.3139 0.0703325 3.27859
thorax 1.44209 -0.135018 1.13299
lowerneck -6.64816 16.2526 7.24153
upperneck 2.09951 22.245 -16.1266
head 4.35075 10.6512 -4.27289
rclavicle -2.14687e-014 2.54444e-014
rhumerus 2.34753 -49.1383 -57.6739
rradius 45.9092
rwrist -30.7648
rhand -54.9141 38.6411
rfingers 7.12502
rthumb -27.298 10.5973
lclavicle -2.14687e-014 2.54444e-014
lhumerus -5.61827 -2.19869 73.562
lradius 78.364
lwrist 21.248
lhand -28.4522 16.1823
lfingers 7.12502
lthumb -1.82262 46.1543
rfemur -24.845 -16.5072 5.03865
rtibia 60.9827
rfoot -27.6994 -13.8854
rtoes -13.6861
lfemur -31.1025 21.5698 -19.9142
ltibia 58.0059
lfoot -18.9163 13.0794
ltoes 2.23573
799
root 18.5289 16.2238 -1.72936 -20.1877 -72.9812 21.8852
lowerback 17.0616 0.142454 4.05581
upperback 10.2347 0.167107 3.37949
thorax 1.40397 -0.0854123 1.24163
lowerneck -5.99823 16.4499 8.40562
upperneck 2.35491 22.5653 -16.8315
head 4.57931 10.8168 -4.6066
rclavicle 2.78299e-014 -4.29375e-014
rhumerus 3.73932 -48.942 -59.2892
rradius 45.1337
rwrist -30.731
rhand -54.6523 36.5028
rfingers 7.12502
rthumb -27.0475 8.41979
lclavicle 2.78299e-014 -4.29375e-014
lhumerus -5.30166 -2.51344 73.3212
lradius 78.3647
lwrist 21.4053
lhand -28.2116 16.198
lfingers 7.12502
lthumb -1.59029 46.1718
rfemur -24.2236 -16.6684 4.79968
rtibia 60.6399
rfoot -27.6621 -14.7215
rtoes -13.4396
lfemur -31.1751 21.1105 -20.202
ltibia 57.8109
lfoot -18.3982 12.8912
ltoes -0.755537
800
root 18.5435 16.2473 -1.68616 -18.5263 -72.265 20.0604
lowerback 17.0557 0.276341 4.47839
upperback 10.253 0.402101 3.53163
thorax 1.43706 0.0480545 1.12941
lowerneck -6.15115 16.2917 8.721
upperneck 2.61568 22.3636 -16.9075
head 4.70393 10.6985 -4.67119
rclavicle -1.27222e-014 1.74931e-014
rhumerus 5.02906 -48.9085 -60.8016
rradius 44.5735
rwrist -30.9032
rhand -54.4514 36.0813
rfingers 7.12502
rthumb -26.8553 7.96864
lclavicle -1.27222e-014 1.74931e-014
lhumerus -4.64674 -2.88245 73.2078
lradius 78.2731
lwrist 21.8302
lhand -27.5814 15.5907
lfingers 7.12502
lthumb -0.981598 45.5681
rfemur -23.637 -16.6579 4.90049
rtibia 60.2189
rfoot -27.403 -15.7582
rtoes -13.1296
lfemur -31.1572 20.6483 -20.1164
ltibia 57.6395
lfoot -18.1853 12.5092
ltoes -0.883659
801
root 18.5654 16.2596 -1.64008 -16.6594 -71.32 17.9376
lowerback 17.0824 0.293341 5.0699
upperback 10.3185 0.500836 3.75787
thorax 1.50962 0.117013 1.02282
lowerneck -6.48627 15.9798 8.10427
upperneck 2.5942 21.9131 -16.4161
head 4.56759 10.4736 -4.49513
rclavicle -7.95139e-015 -3.49861e-014
rhumerus 6.57104 -48.6847 -62.348
rradius 43.9216
rwrist -31.1429
rhand -54.6449 36.1372
rfingers 7.12502
rthumb -27.0405 8.05313
lclavicle -7.95139e-015 -3.49861e-014
lhumerus -3.96674 -3.12976 73.2471
lradius 78.2195
lwrist 21.9535
lhand -26.9959 15.1162
lfingers 7.12502
lthumb -0.416101 45.0956
rfemur -22.8557 -16.6644 4.99146
rtibia 59.7472
rfoot -27.4531 -16.3023
rtoes -11.7193
lfemur -31.1052 19.9242 -19.9328
ltibia 57.4879
lfoot -18.1301 12.0815
ltoes 0.0243077
